<svg xmlns="http://www.w3.org/2000/svg" width="280" height="280" style="width:100%;height:100%;transform:translate3d(0,0,0)"><defs><clipPath id="a"><path d="M0 0h280v280H0z"/></clipPath></defs><g clip-path="url(#a)"><g style="display:block"><path stroke-linecap="round" stroke-linejoin="round" stroke="#E1E3E6" stroke-width="2.52" d="m92.128 76.97 5.842 5.842M92.128 82.812l5.842-5.842M191.72 179.711l5.834 5.834M191.72 185.545l5.834-5.835M169.415 14.567l5.834 5.836M169.415 20.401l5.834-5.834" fill="none"/></g><g style="display:block"><path stroke-linecap="round" stroke-linejoin="round" stroke="#E1E3E6" stroke-width="2.52" d="M88.173 23.023a5.028 5.028 0 1 1 0 10.056 5.028 5.028 0 0 1 0-10.056zM80.921 115.323a4.278 4.278 0 1 1 0 8.555 4.278 4.278 0 0 1 0-8.555zM202.772 71.337a4.278 4.278 0 1 1 0 8.555 4.278 4.278 0 0 1 0-8.555z" fill="none"/></g><path fill="#313638" d="m-22.723-45.394 2.004 19.299c.579 7.07 1.26 15.494 2.054 24.265.586 6.71 2.394 21.309 3.78 32.234l1.336 14.303h.334c.063.441.093.687.093.687l7.139-.75h3.151v-.302l.428-.051v-69.844a2.426 2.426 0 1 1 4.833 0v69.819l.434.05v.303h3.119l7.145.75.089-.687h.34l1.336-14.303c1.392-10.925 3.207-25.524 3.78-32.235.762-8.745 1.468-17.169 2.054-24.239l1.997-19.299h-45.446z" transform="matrix(1.00372 0 0 .99792 139.83 208.357)" style="display:block"/><path fill="#25282A" d="m21.13 6.928 1.593-13.856h-45.446l1.436 13.856H21.13z" transform="translate(139.83 171.441)" style="display:block"/><path fill="#313638" d="M18.301.353a20.222 20.222 0 0 1-2.854-14.611c.195-1.028.378-1.935.535-2.672 1.357-5.722-2.181-11.461-7.903-12.818a10.694 10.694 0 0 0-2.436-.288s-11.386-.334-19.388-.472c-3.314-.051-7.838 9.224-6.206 9.861.396.216.82.377 1.26.478.863.309 1.726.593 2.595.857 1.474.441 2.969.826 4.468 1.166.75.164 1.506.321 2.269.46l1.153.208c.403.063.742.126 1.259.176v-1.399c1.058.063 2.066.108 2.993.114 2.211 0 4.316-.063 6.3-.214l.252.403a5.722 5.722 0 0 0 1.45 7.057c.082.264.158.535.246.806v.265l.076 1.26c.05.825.12 1.638.202 2.451.17 1.626.389 3.251.679 4.877.113.598.24 1.197.366 1.802-2.111 3.15-3.459 7.895-3.459 13.194 0 9.526 4.347 17.245 9.703 17.245 5.355 0 9.703-7.719 9.703-17.245.019-5.18-1.247-9.804-3.263-12.961z" transform="translate(136.88 68.13)" style="display:block"/><path fill="#232728" d="M6.48 3.393H-6.48V1.018a4.41 4.41 0 0 1 4.41-4.411h4.139A4.411 4.411 0 0 1 6.48 1.018v2.375z" transform="translate(132.514 262.676)" style="display:block"/><path fill="#232728" d="M6.456 3.393H-6.48V1.018a4.41 4.41 0 0 1 4.41-4.411h4.14a4.41 4.41 0 0 1 4.41 4.411v2.375h-.024z" transform="translate(148.638 262.676)" style="display:block"/><path fill="#100C08" d="M6.317.911H-6.316a.618.618 0 0 1-.618-.617v-.586a.62.62 0 0 1 .618-.619H6.317c.341 0 .617.278.617.619v.586c0 .34-.276.617-.617.617z" transform="translate(132.565 266.734)" style="display:block"/><path fill="#100C08" d="M6.317.911H-6.316a.618.618 0 0 1-.618-.617v-.586a.62.62 0 0 1 .618-.619H6.317c.341 0 .617.278.617.619v.586c0 .34-.276.617-.617.617z" transform="translate(148.663 266.734)" style="display:block"/><path fill="#FCD19D" d="M0 .756a6.487 6.487 0 0 0-3.239.87v-3.252h6.478v3.252A6.466 6.466 0 0 0 0 .756z" transform="translate(132.518 258.578)" style="display:block"/><path fill="#FCD19D" d="M0 .756c-1.137 0-2.254.3-3.239.87v-3.252h6.478v3.252A6.487 6.487 0 0 0 0 .756z" transform="translate(148.616 258.578)" style="display:block"/><path fill="#272B2D" d="M-6.124 2.476H6.125c.25 0 .453-.203.453-.454v-4.045a.453.453 0 0 0-.453-.453h-.007l-12.248.088a.46.46 0 0 0-.448.46v3.95c0 .251.203.454.454.454z" transform="translate(132.209 254.432)" style="display:block"/><path fill="#272B2D" d="M-6.43-2.704 6.525-1.382a.461.461 0 0 1 .41.454v3.183c0 .25-.204.453-.455.453H-6.474a.46.46 0 0 1-.46-.453v-4.506a.454.454 0 0 1 .451-.457c.018 0 .035.002.053.004z" transform="translate(148.663 254.2)" style="display:block"/><path fill="#7F4851" d="M-16.546-.567c0 14.202 3.654 22.462 8.928 25.72a4.369 4.369 0 0 1 2.124 3.705 7.49 7.49 0 0 0 7.359 7.516c4.448-.037 6.401-2.646 7.252-5.103a6.516 6.516 0 0 1 4.303-4.228c3.126-.851 2.294-5.986 1.538-27.61-.687-19.759-7.057-35.807-15.752-35.807S-16.546-20.339-16.546-.567z" transform="translate(103.238 179.043)" style="display:block"/><path fill="#BD7468" d="M-2.012-29.645s-3.251 2.218-1.26 25.461c.775 9.099 6.263 21.67 9.804 27.586a4.096 4.096 0 0 1-3.907 6.162l-8.959-.825S-7.683-15.14-7.683-15.965c0-.825 5.671-13.68 5.671-13.68z" transform="translate(97.853 179.622)" style="display:block"/><path fill="#DC946D" d="M-7.859-3.609v25.468a21.172 21.172 0 0 0 3.226 11.24l.63 1.065a2.583 2.583 0 0 0 4.411-.057l5.04-8.569a2.518 2.518 0 0 0 .088-2.457C3.281 18.614-3.915 2.131-.859-20.728c1.418-10.541 8.72-15.009 8.72-15.009s-15.72 2.458-15.72 32.128z" transform="translate(94.519 177.825)" style="display:block"/><path fill="#313638" d="M23.609-1.021c-1.789-11.619-4.505-22.727-7.907-29.79C11.625-38.933 6.496-43.702.58-43.702H-.58c-5.91 0-11.039 4.769-15.122 12.891-3.408 7.063-6.118 18.171-7.907 29.79-.876 5.671-.68 41.465-.63 41.944.094 2.779 48.428 2.779 48.516 0 .012-.479.208-36.267-.668-41.944z" transform="translate(140.23 124.365)" style="display:block"/><path fill="#313638" d="m-11.691-15.298-.454 28.353a2.282 2.282 0 0 0 2.111 2.244L5.327 16.59a5.734 5.734 0 0 0 6.301-5.488l.517-27.837-23.836 1.437z" transform="translate(127.688 158.231)" style="display:block"/><path fill="#313638" d="M-12.303 11.033c.069 3.251 3.094 5.772 6.578 5.488l16.383-1.115a2.32 2.32 0 0 0 2.205-2.243l.007-25.658-25.74-4.31.567 27.838z" transform="translate(151.65 158.301)" style="display:block"/><path fill="#313638" d="M-10.738.199v3.239c-.673 14.316-12.465 25.582-26.797 25.6v10.566C-16.896 39.579-.171 22.854-.146 2.215h37.681C35.552-9.116 24.844-33.673 13.524-33.673c-16.628 0-24.262 18.882-24.262 33.872z" transform="translate(120.894 121.022)" style="display:block"/><path fill="#313638" d="M-37.542 2.214H.153c.025 20.639 16.749 37.365 37.389 37.39V29.036c-14.339-.008-26.143-11.276-26.816-25.6-.032-.642 0-2.607 0-3.237 0-14.99-13.352-39.803-29.973-39.803-11.298 0-16.304 30.487-18.295 41.818z" transform="translate(159.112 121.022)" style="display:block"/><path fill="#7F4851" d="M-2.02-21.624a3.453 3.453 0 0 0-3.453 3.453v36.343a3.453 3.453 0 0 0 3.453 3.452h4.04a3.453 3.453 0 0 0 3.453-3.452v-36.343a3.454 3.454 0 0 0-3.453-3.453h-4.04z" transform="translate(113.203 197.473)" style="display:block"/><path fill="#BE7468" d="M-7.591-27.151a5.56 5.56 0 0 1 3.201.51 8.533 8.533 0 0 1 2.646 2.117 21.103 21.103 0 0 1 3.346 5.81A65.519 65.519 0 0 1 4.998-6.025a190.083 190.083 0 0 1 2.445 25.834 7.084 7.084 0 0 1-14.158.535 7.418 7.418 0 0 1 .195-1.959A178.444 178.444 0 0 0-2.021-5.76c.479-4.017.552-8.072.22-12.104a18.374 18.374 0 0 0-1.411-5.714 7.129 7.129 0 0 0-1.663-2.357 5.084 5.084 0 0 0-2.716-1.216z" transform="translate(108.34 170.046)" style="display:block"/><path fill="#DC946D" d="M-10.904-29.705a6.703 6.703 0 0 0-3.309 1.972 6.126 6.126 0 0 1 3.39-.844c1.07.108 2.07.586 2.824 1.354 1.543 1.5 2.5 3.623 3.231 5.797 1.443 4.373 1.991 9.136 2.262 13.862.222 4.752.162 9.513-.183 14.259-.346 4.75-.907 9.482-1.644 14.17a7.75 7.75 0 0 0 7.656 8.96h2.601a7.749 7.749 0 0 0 7.668-8.872v-.088c-.756-5.16-1.706-10.302-2.884-15.342A129.685 129.685 0 0 0 6.266-9.448c-1.84-4.877-3.952-9.71-7.065-14.082a24.458 24.458 0 0 0-2.601-3.1 13.359 13.359 0 0 0-3.358-2.476 6.293 6.293 0 0 0-4.146-.599z" transform="translate(113.153 171.85)" style="display:block"/><path fill="#FDDCB7" d="M7.095.418a73.36 73.36 0 0 1 3.73 6.654A42.601 42.601 0 0 0 7.674.065a20.853 20.853 0 0 0-2.217-3.194 12.49 12.49 0 0 0-2.955-2.609 8.519 8.519 0 0 0-3.781-1.26 6.682 6.682 0 0 0-2.03.088 9.006 9.006 0 0 0-1.89.63 13.332 13.332 0 0 0-3.212 2.231 12.31 12.31 0 0 0-2.414 3.005 15.422 15.422 0 0 1 2.74-2.627 14.837 14.837 0 0 1 1.974-1.28 6.866 6.866 0 0 0-1.621 2.149 9.523 9.523 0 0 1 3.774-2.564A4.625 4.625 0 0 1-1.859-5.7c.725.073 1.43.287 2.074.63a9.917 9.917 0 0 1 3.333 2.987 17.4 17.4 0 0 1 2.186 4.101 12.811 12.811 0 0 0-1.651-4.461 9.456 9.456 0 0 0-2.455-2.759c.142.079.288.15.426.239C4.115-3.684 5.709-1.674 7.095.418z" transform="translate(104.705 148.841)" style="display:block"/><path fill="#272B2D" d="M0-2.76a2.761 2.761 0 0 1 0 5.52 2.76 2.76 0 1 1 0-5.52z" transform="translate(139.096 144.831)" style="display:block"/><path fill="#272B2D" d="M0-2.76a2.761 2.761 0 0 1 0 5.52 2.76 2.76 0 1 1 0-5.52z" transform="translate(139.096 155.226)" style="display:block"/><path fill="#272B2D" d="M-10.122-26.58s-5.286 9.779-5.041 9.779c.246 0 6.508 1.153 6.508 1.153l-4.171 2.797L-.363 27.683l13.17-40.534-4.173-2.797s6.257-1.153 6.515-1.153c.259 0-5.739-10.882-5.739-10.882l-19.532 1.103z" transform="translate(139.358 112.831)" style="display:block"/><path fill="#FDDCB7" d="M10.664 7.085.135 7.13-10.664-.658-.003-7.13 10.664 7.085z" transform="translate(70.263 142.89)" style="display:block"/><path fill="#FCD19D" d="M5.262-2.687C4.748-4.574 2.577-5.951-.016-5.938c-2.596.012-4.731 1.424-5.248 3.301h.05-.044v.821a7.792 7.792 0 0 0 7.825 7.748h2.697v-8.619h-.002z" transform="translate(75.662 152.662)" style="display:block"/><path fill="#313638" d="M-3.132-6.008h6.264v9.886a2.13 2.13 0 0 1-2.131 2.13H-.995a2.131 2.131 0 0 1-2.131-2.13v-9.886h-.006z" transform="translate(85.04 155.991)" style="display:block"/><path fill="#272B2D" d="M0-1.941a1.942 1.942 0 1 1-.002 3.884A1.942 1.942 0 0 1 0-1.941z" transform="translate(85.041 160.209)" style="display:block"/><path fill="#F0C18D" d="m-1.809-4.455 7.852-2.18a1.834 1.834 0 0 1 2.174.958 1.38 1.38 0 0 1-1.028 1.846L3.441-2.785h6.256a1.683 1.683 0 0 1 1.796 1.449A1.525 1.525 0 0 1 9.928.148L9.861.145H2.93L8.135 1.19a1.557 1.557 0 0 1 1.352 1.737l-.004.028a1.656 1.656 0 0 1-1.997 1.102L-.177 2.52l4.808 2.356a1.418 1.418 0 0 1 .711 2.017 1.799 1.799 0 0 1-2.298.535l-5.307-2.602-3.44-.441c-3.365-.428-5.79-3.15-5.419-6.03a4.588 4.588 0 0 1 3.019-3.623l5.626-2.205a2.061 2.061 0 0 1 2.521.825 1.223 1.223 0 0 1-.7 1.752l-1.153.441z" transform="translate(206.861 155.963)" style="display:block"/><path fill="#313638" d="M-3.132-6.008h6.264v9.886a2.13 2.13 0 0 1-2.13 2.13H-.996a2.13 2.13 0 0 1-2.13-2.13v-9.886h-.006z" transform="translate(197.768 155.991)" style="display:block"/><path fill="#272B2D" d="M0-1.941a1.942 1.942 0 1 1-.002 3.884A1.942 1.942 0 0 1 0-1.941z" transform="translate(197.787 158.319)" style="display:block"/><path fill="#F0F1F2" d="m-9.026-24.706 8.928 50.653 9.124-51.894-18.052 1.241z" transform="translate(139.099 114.548)" style="display:block"/><path fill="#F9BF96" d="M-9.982 4.854a5.652 5.652 0 0 1 0-.92l.92-7.441L9.96-15.775 9.923 4.098c.022.277.022.555 0 .832v.466c.139 5.517-4.221 10.102-9.739 10.241-5.517.138-10.103-4.222-10.242-9.74a10.458 10.458 0 0 1 0-.501c.063-.164.07-.359.076-.542z" transform="translate(138.958 80.087)" style="display:block"/><path fill="#FFF" d="M.46-.895c-3.85 0-7.246-.668-9.357-1.695a10.043 10.043 0 0 0 5.948 5.18L.088-.454l3.037 3.038a10.01 10.01 0 0 0 5.772-4.783A24.837 24.837 0 0 1 .46-.895z" transform="translate(138.856 92.886)" style="display:block"/><path d="m.926-20.855-.788 41.71-1.064-41.704 1.852-.006z" transform="translate(138.863 119.64)" style="display:block"/><path fill="#EF7D00" d="M0-3.428a3.43 3.43 0 0 1 0 6.856 3.428 3.428 0 0 1 0-6.856z" transform="translate(138.863 95.773)" style="display:block"/><path fill="#313638" d="M0-1.544a1.545 1.545 0 0 1 0 3.088 1.543 1.543 0 1 1 0-3.088z" transform="translate(138.863 95.773)" style="display:block"/><path fill="#FCD19D" d="M-1.37-18.005c2.394 0 4.68-.069 6.785-.252a5.745 5.745 0 0 0 3.1 8.544 3.962 3.962 0 0 0-.05.498c.001.471.086.938.252 1.379 0 .063.063.121.088.184.504-1.644 1.783-2.824 3.276-2.824 1.941 0 3.51 1.961 3.51 4.374V3.86c0 8.61-6.978 15.59-15.588 15.594-8.613 0-15.594-6.982-15.594-15.594v-23.314A91.701 91.701 0 0 0-1.37-18.005z" transform="translate(133.321 67.548)" style="display:block"/><path fill="#FFF" d="M0-.712A.712.712 0 1 1 0 .713.712.712 0 0 1 0-.712z" transform="translate(144.477 67.538)" style="display:block"/><path fill="#F9BF96" d="M1.719-7.209V7.207H-.845a.87.87 0 0 1-.845-1.09L1.719-7.209z" transform="translate(123.011 65.611)" style="display:block"/><path stroke-linecap="round" stroke-miterlimit="10" stroke="#F7B391" stroke-width="1.32" d="M-4.02.561S.712-.561 4.02-.321" fill="none" transform="translate(125.486 77.115)" style="display:block"/><path fill="#1D1D1B" d="M-.762 1.014a1.886 1.886 0 0 1-.466-1.259c0-.882.497-1.601 1.115-1.601.617 0 1.123.719 1.123 1.601.002.347-.082.688-.246.994.179.014.355.045.528.095a.215.215 0 0 1 .155.261l-.004.011a.22.22 0 0 1-.27.151 2.344 2.344 0 0 0-2.256.523.229.229 0 0 1-.152.056.21.21 0 0 1-.157-.069.22.22 0 0 1 0-.308 2.69 2.69 0 0 1 .63-.455z" transform="translate(131.257 59.838)" style="display:block"/><path fill="#1D1D1B" d="M-1.381 1.442c.189-.171.401-.316.63-.428a1.839 1.839 0 0 1-.472-1.261c0-.882.504-1.599 1.121-1.599.618 0 1.122.717 1.122 1.599.003.348-.084.692-.252.996.181.013.361.044.535.094a.222.222 0 0 1 .151.272.227.227 0 0 1-.271.151 2.355 2.355 0 0 0-2.262.523.205.205 0 0 1-.144.057.225.225 0 0 1-.164-.069.22.22 0 0 1 .006-.335z" transform="translate(120.573 59.839)" style="display:block"/><path fill="#313638" d="m5.944-4.096.232-.73A19.762 19.762 0 0 0 .43-5.33c-.524.033-1.044.107-1.556.219-.734.051-1.463.17-2.174.367a5.55 5.55 0 0 0-1.519.737 3.259 3.259 0 0 0-1.172 1.5 3.156 3.156 0 0 0 0 1.851c.186.524.456 1.015.801 1.451a10.02 10.02 0 0 0 2.23 2.066 20.2 20.2 0 0 0 5.331 2.584 19.587 19.587 0 0 1-4.896-3.107 8.94 8.94 0 0 1-.673-.647c.427.353.881.672 1.366.942a18.054 18.054 0 0 0 5.041 1.892 17.584 17.584 0 0 1-4.48-2.698A7.968 7.968 0 0 1-2.922.007a3.109 3.109 0 0 1-.429-.984 1.263 1.263 0 0 1 .063-.761c.133-.199.312-.362.523-.474.292-.14.602-.239.92-.295a7.903 7.903 0 0 1 2.262-.05c1.599.191 3.161.615 4.638 1.259l.425-1.338.551-1.434-.087-.026z" transform="translate(135.056 50.325)" style="display:block"/><path fill="#313638" d="M1.724 6.846A1.852 1.852 0 0 1-.167 4.805C.16 2.454-.432-4.017-1.585-5.062c-2.01-1.809 5.179 3.149 5.179 3.149v6.932a1.888 1.888 0 0 1-1.87 1.827z" transform="translate(138.683 56.578)" style="display:block"/><path fill="#313638" d="M8.969-6.596h-.92a18.48 18.48 0 0 1-8.79-1.429 15.638 15.638 0 0 0-6.388-1.317c-6.875 0-12.451 4.165-12.451 9.306 0 5.142 5.576 9.313 12.451 9.313a14.89 14.89 0 0 0 8.436-2.433 12.524 12.524 0 0 0 7.687 2.463c5.847 0 10.586-3.559 10.586-7.969 0-4.411-4.739-7.934-10.611-7.934z" transform="translate(131.079 44.287)" style="display:block"/></g></svg>